<svg xmlns="http://www.w3.org/2000/svg" version="1.1" xmlns:xlink="http://www.w3.org/1999/xlink" xmlns:svgjs="http://svgjs.dev/svgjs" width="1440" height="560" preserveAspectRatio="none" viewBox="0 0 1440 560">
    <g mask="url(&quot;#SvgjsMask1054&quot;)" fill="none">
        <path d="M99.62 0C139.3 41.4 115.1 70.99 134.17 140C135.29 144.03 137.12 146.09 140 146.09C142.83 146.09 144.03 143.81 145.6 140C174.03 70.77 156.15 45.67 200 0C223.35 -24.33 240 0 280 0C314.14 0 317.77 -11.24 348.29 0C387.77 14.55 379.25 45.05 420 51.58C485.1 62.02 491.73 49.51 560 33.94C604.8 23.72 601.89 10.73 646.15 0C671.89 -6.24 673.08 0 700 0C770 0 770 0 840 0C910 0 910 0 980 0C1050 0 1050 0 1120 0C1190 0 1190 0 1260 0C1330 0 1330 0 1400 0C1470 0 1505 -35 1540 0C1575 35 1540 70 1540 140C1540 180.25 1550.66 183.52 1540 220.5C1530.49 253.52 1499.66 250.01 1499.66 280C1499.66 311.08 1530.11 308.29 1540 342.63C1550.28 378.29 1540 381.32 1540 420C1540 464.54 1546.57 465.86 1540 509.09C1535.93 535.86 1540.94 551.92 1518.73 560C1470.94 577.38 1459.36 560 1400 560C1330 560 1330 560 1260 560C1190 560 1190 560 1120 560C1061.66 560 1007.4 588.48 1003.33 560C997.4 518.48 1100.21 489.9 1100 420C1099.79 349.9 1045.6 352.91 1002.5 280C985.6 251.41 1006.07 230.48 980 217C924.82 188.48 905.47 182.25 840 196C765.47 211.66 774.59 259.66 700 275.82C634.59 289.99 629.15 255.34 560 256.67C520.26 257.43 485.63 251.52 482.22 280C475.86 333.18 506.7 353.94 540.47 420C545.59 430.03 551.78 424.17 560 432.17C623.66 494.17 684.23 522.34 684.23 560C684.23 586.25 622.12 560 560 560C490 560 490 560 420 560C350 560 350 560 280 560C210 560 210 560 140 560C70 560 35 595 0 560C-35 525 0 490 0 420C0 350 0 350 0 280C0 210 0 210 0 140C0 70 -29.1 40.9 0 0C20.71 -29.1 72.21 -28.6 99.62 0" stroke="rgba(240, 148, 51, 1)" stroke-width="2"></path>
        <path d="M1120 46.67C1081.14 46.67 1037.04 102.59 1037.04 140C1037.04 167.04 1079.32 175.56 1120 175.56C1153.74 175.56 1185.88 165.51 1185.88 140C1185.88 101.07 1155.56 46.67 1120 46.67" stroke="rgba(188, 24, 136, 1)" stroke-width="2"></path>
        <path d="M1400 96.92C1379.4 96.92 1356.92 121.78 1356.92 140C1356.92 154.52 1378.88 162.4 1400 162.4C1418.49 162.4 1436.13 154.1 1436.13 140C1436.13 121.36 1419.01 96.92 1400 96.92" stroke="rgba(220, 39, 67, 1)" stroke-width="2"></path>
        <path d="M280 216.36C243.55 216.36 242.88 244.9 213.33 280C172.88 328.05 183.03 338.23 140 382.67C115.25 408.23 77.78 397.5 77.78 420C77.78 447.28 102 478.38 140 482.22C203.11 488.59 212.77 466.2 280 440.42C293.9 435.09 294.33 432.73 302.27 420C344.33 352.52 386.4 338.51 380 280C375.26 236.69 326.88 216.36 280 216.36" stroke="rgba(204, 35, 102, 1)" stroke-width="2"></path>
        <path d="M731.11 420C731.11 399.25 789.61 388.39 840 388.39C859.86 388.39 871.61 402.13 871.61 420C871.61 445.16 863.94 474.44 840 474.44C793.69 474.44 731.11 442.28 731.11 420" stroke="rgba(220, 39, 67, 1)" stroke-width="2"></path>
        <path d="M32.31 0C32.31 47.62 8.22 120 0 120C-7.94 120 -12.73 47.27 0 0C3.43 -12.73 32.31 -12.38 32.31 0" stroke="rgba(204, 35, 102, 1)" stroke-width="2"></path>
        <path d="M291.67 140C291.67 120.14 355.68 125.69 420 112.98C489.84 99.18 491.41 105.29 560 86.97C631.41 67.89 635.5 70.64 700 38.18C721.9 27.16 710.44 6.1 732.81 0C780.44 -12.99 786.4 0 840 0C897.16 0 954.33 -24.25 954.33 0C954.33 34.89 898.13 60.17 840 118.28C828.11 130.17 827.73 129.89 814.29 140C757.73 182.54 763.42 209.03 700 223.58C636.28 238.2 630.55 205.53 560 198.33C490.55 191.24 487.18 209.6 420 195C353.02 180.44 291.67 161.15 291.67 140" stroke="rgba(230, 104, 60, 1)" stroke-width="2"></path>
        <path d="M1540 132C1507.05 132 1424.5 39.79 1424.5 0C1424.5 -26.21 1513.05 -30.8 1540 0C1570.8 35.2 1564.8 132 1540 132" stroke="rgba(188, 24, 136, 1)" stroke-width="2"></path>
        <path d="M0 146.36C38.1 146.36 130.67 217.38 130.67 280C130.67 335.78 40.34 383.16 0 383.16C-25 383.16 0 331.58 0 280C0 213.18 -27.24 146.36 0 146.36" stroke="rgba(204, 35, 102, 1)" stroke-width="2"></path>
        <path d="M1065 280C1065 252.94 1091.45 231.11 1120 231.11C1151.72 231.11 1152.57 255.82 1185.53 280C1222.57 307.19 1222.06 333.85 1260 333.85C1300.96 333.85 1303.24 309.05 1343.33 280C1373.24 258.33 1373.68 232.4 1400 232.4C1422.19 232.4 1440.34 254.51 1440.34 280C1440.34 312.31 1420.3 314.08 1400 348C1378.41 384.08 1356.55 386.83 1356.55 420C1356.55 443.83 1380.59 438.95 1400 462C1439.53 508.95 1474.43 529.47 1474.43 560C1474.43 578.47 1437.22 560 1400 560C1351 560 1345.3 573.44 1302 560C1275.3 551.71 1284.87 516.55 1260 516.55C1218.87 516.55 1216.66 545.52 1170 560C1146.66 567.24 1145 560 1120 560C1103.34 560 1086.67 568.41 1086.67 560C1086.67 545.83 1105.92 539.02 1120 514.84C1146.69 469.02 1168.2 465.68 1168.2 420C1168.2 384.08 1144.81 385.29 1120 351.63C1093.21 315.29 1065 313.2 1065 280" stroke="rgba(240, 148, 51, 1)" stroke-width="2"></path>
        <path d="M381.82 420C405.23 394.71 400.76 362.07 420 362.07C439.38 362.07 433.16 397.64 459.07 420C503.16 458.06 513.82 446.14 560 482.9C601.75 516.14 634.93 537.28 634.93 560C634.93 575.83 597.46 560 560 560C490 560 490 560 420 560C350 560 350 560 280 560C243.87 560 207.74 570.65 207.74 560C207.74 547.32 246.6 540.19 280 513.33C333.64 470.19 335.23 470.34 381.82 420" stroke="rgba(188, 24, 136, 1)" stroke-width="2"></path>
        <path d="M0 507.5C15.38 507.5 52.5 544.62 52.5 560C52.5 570.87 13.13 573.13 0 560C-13.13 546.88 -10.87 507.5 0 507.5" stroke="rgba(188, 24, 136, 1)" stroke-width="2"></path>
        <path d="M560 140C560 122.52 634.48 101.82 700 101.82C725.91 101.82 742.86 121.94 742.86 140C742.86 156.7 724.7 171.34 700 171.34C633.27 171.34 560 157.28 560 140" stroke="rgba(188, 24, 136, 1)" stroke-width="2"></path>
        <path d="M840 57.93C813.28 57.93 787.5 17.33 787.5 0C787.5 -11.64 813.75 0 840 0C868 0 896 -11.88 896 0C896 17.09 867.53 57.93 840 57.93" stroke="rgba(220, 39, 67, 1)" stroke-width="2"></path>
        <path d="M1540 32C1532.01 32 1512 9.65 1512 0C1512 -6.35 1533.47 -7.47 1540 0C1547.47 8.53 1546.01 32 1540 32" stroke="rgba(204, 35, 102, 1)" stroke-width="2"></path>
        <path d="M0 225.91C15.42 225.91 52.89 254.65 52.89 280C52.89 302.57 16.33 321.75 0 321.75C-10.12 321.75 0 300.88 0 280C0 252.95 -11.03 225.91 0 225.91" stroke="rgba(204, 35, 102, 1)" stroke-width="2"></path>
        <path d="M1225.57 420C1225.57 403.35 1242.58 387.69 1260 387.69C1277.9 387.69 1296.21 403.33 1296.21 420C1296.21 437.59 1277.88 456.21 1260 456.21C1242.56 456.21 1225.57 437.61 1225.57 420" stroke="rgba(220, 39, 67, 1)" stroke-width="2"></path>
        <path d="M473.33 560C473.33 553.26 520.06 533.62 560 533.62C576.21 533.62 585.63 552.23 585.63 560C585.63 565.42 572.82 560 560 560C516.66 560 473.33 566.45 473.33 560" stroke="rgba(230, 104, 60, 1)" stroke-width="2"></path>
        <path d="M1360.33 560C1360.33 548.38 1381.51 520.33 1400 520.33C1416.41 520.33 1430.13 547.64 1430.13 560C1430.13 567.48 1415.07 560 1400 560C1380.16 560 1360.33 568.22 1360.33 560" stroke="rgba(220, 39, 67, 1)" stroke-width="2"></path>
    </g>
    <defs>
        <mask id="SvgjsMask1054">
            <rect width="1440" height="560" fill="#ffffff"></rect>
        </mask>
    </defs>
</svg>